<svg width="40" height="47" viewBox="0 0 40 47" xmlns="http://www.w3.org/2000/svg"><g fill="none" fill-rule="evenodd"><path d="M20.4 45.567l5.152-6.868.156-.048A19.508 19.508 0 0039.5 20C39.5 9.23 30.77.5 20 .5S.5 9.23.5 20c0 9.006 6.157 16.78 14.776 18.924l.172.043 4.952 6.6z" stroke="#000" fill="#000"/><path d="M31.895 21.574a5.157 5.157 0 00-.2-.754 4.995 4.995 0 00-.32-.714 5.773 5.773 0 00-2.206-2.195c-.909-.533-1.935-.851-2.963-1.022-.255-.046-.51-.09-.768-.126-.257-.037-.513-.074-.77-.109-.515-.065-1.03-.116-1.536-.183a6.603 6.603 0 01-.375-.056c-.062-.01-.125-.02-.186-.033l-.18-.042-.088-.02-.088-.027-.175-.056c-.056-.022-.11-.046-.164-.07l-.078-.033a.707.707 0 00.008-.885.764.764 0 00.742-.787.767.767 0 00-.763-.722h-.011l-.377.006c.047-.1.07-.21.069-.32a.763.763 0 00-.613-.725c.067-.255.162-.42.257-.45.095-.028.213.064.28.12.189.19.342.41.452.652.024.06.081.102.147.107h.014a.17.17 0 00.149-.085l.54-.936a.85.85 0 00-.483-1.236 1.2 1.2 0 00-.374-.058 2.284 2.284 0 00-.657.102 1.298 1.298 0 00-.013-.46 3.738 3.738 0 00-.27-.805 10.255 10.255 0 00-.816-1.448L19.943 8l-.131.208c-.155.245-.295.49-.43.744a8.378 8.378 0 00-.366.78 3.341 3.341 0 00-.238.85 1.267 1.267 0 00.007.34 2.112 2.112 0 00-.66-.108c-.137 0-.274.024-.404.071a.847.847 0 00-.45 1.224l.539.936c.032.057.095.09.162.085a.175.175 0 00.148-.107c.115-.294.285-.546.438-.64.152-.094.255-.118.34-.085.106.037.204.185.274.412a.82.82 0 00-.668.784.643.643 0 00.077.296l-.406.006a.767.767 0 00-.774.76.765.765 0 00.726.75.706.706 0 00.045.831l-.077.033c-.055.023-.11.048-.165.07l-.175.055-.087.027-.088.021-.18.042-.186.033c-.123.023-.249.04-.375.056-.505.066-1.021.117-1.535.183-.257.034-.515.066-.771.108-.257.042-.512.081-.768.127-1.028.17-2.053.49-2.962 1.021A5.768 5.768 0 008.6 20.105c-.125.23-.233.469-.321.715a5.242 5.242 0 00-.2.754 5.143 5.143 0 00-.038 1.55c.03.258.082.513.155.762.067.25.152.496.252.736.215.47.473.919.772 1.343.598.838 1.29 1.59 1.932 2.367.462.544.88 1.122 1.247 1.73.005.007.012.01.018.018.1.156.252.446.408.757.106 0 .21-.008.315-.014.232-.013.46-.033.677-.057 1.001-.146 1.708-.396 2.395-.643.971-.35 1.89-.68 3.766-.68 1.878 0 2.799.33 3.767.68.68.245 1.382.493 2.37.64a13.395 13.395 0 001.02.074c.156-.311.31-.601.41-.757a.146.146 0 01.024-.026c.366-.604.78-1.179 1.239-1.72.642-.777 1.334-1.531 1.933-2.366.298-.425.557-.874.772-1.343.101-.24.186-.487.253-.737a5.123 5.123 0 00.118-2.312l.011-.002zm-3.594 3.988a.945.945 0 00-.788.435.807.807 0 00-.205-.436 1.198 1.198 0 00-.76-.395 5.33 5.33 0 00.65-1.923c.28-2.074-.508-3.697-2.242-4.57a79.35 79.35 0 00-.828-.41c-.543-.267-1.025-.504-1.45-.746.963.364 2.125.641 3.518.947 1.8.395 3.727 1.882 3.236 4.773a4.316 4.316 0 01-1.132 2.325h.001zm-.08 2.574a10.092 10.092 0 01-2.872-.535c.357-.804.735-1.03.887-1.04a.082.082 0 01.098.06c.04.181.065.365.074.551.006.064.049.12.11.144a.179.179 0 00.18-.039c.016-.015.393-.38.48-.474l.119-.126a.958.958 0 00.06-.074l-.034.809a.173.173 0 00.173.173c.051 0 .1-.021.134-.059.243-.288.321-.362.46-.437.075-.04.127-.048.156-.023.133.115.143.628-.024 1.07zm-16.497-1.07c.029-.025.08-.017.155.023.14.075.217.15.46.437a.179.179 0 00.196.051.17.17 0 00.112-.165l-.034-.809c.018.026.039.051.06.074l.118.126c.087.095.464.46.48.474a.173.173 0 00.24.002.162.162 0 00.05-.107c.01-.186.034-.37.074-.552a.088.088 0 01.1-.058c.151.008.535.238.895 1.058-.924.32-1.892.502-2.871.543-.175-.447-.17-.98-.035-1.097zm.076-1.495a.79.79 0 00-.124-.01 4.31 4.31 0 01-1.132-2.324c-.491-2.893 1.436-4.378 3.235-4.773 1.393-.306 2.56-.583 3.52-.947-.426.242-.908.479-1.451.745-.263.13-.54.266-.829.411-1.73.873-2.524 2.496-2.24 4.57.091.674.312 1.326.65 1.922a1.2 1.2 0 00-.768.396.811.811 0 00-.206.436.942.942 0 00-.655-.426zm7.007-10.277c.223.024.383.219.358.435a.401.401 0 01-.394.35h-.005a.401.401 0 01-.406-.389.383.383 0 01.114-.279.41.41 0 01.237-.116l.096-.001zm4.49 9.226a.831.831 0 00-.548.485 1.022 1.022 0 00-.023-.191.823.823 0 00-.438-.583 1.332 1.332 0 00-1.01-.033c.395-.66.765-1.29.765-2.418 0-1.02-.29-1.845-.595-2.713-.116-.332-.238-.68-.35-1.053.47.448.99.843 1.551 1.177 1.27.787 1.87 2.468 1.631 3.538a8.341 8.341 0 01-.608 1.742 1.202 1.202 0 00-.377.046l.002.003zm-3.065-2.87l-.253-.406-.231.373c-.445.716-.861 1.387-.983 2.024a3.573 3.573 0 01-.493-1.861c0-.97.267-1.728.577-2.606.282-.802.592-1.68.752-2.867.117.07.252.108.39.108h.008a.76.76 0 00.379-.107c.16 1.186.47 2.064.752 2.866.31.878.577 1.636.577 2.606a3.58 3.58 0 01-.497 1.872c-.129-.628-.539-1.29-.978-1.998v-.004zm.613 2.753c-.318.199-.605.44-.853.718a4.03 4.03 0 00-.835-.707c-.263-.717.2-1.5.824-2.505.623 1.002 1.09 1.782.864 2.494zm-4.547.063a8.43 8.43 0 01-.607-1.74c-.238-1.074.36-2.752 1.63-3.539a8.658 8.658 0 001.552-1.176c-.113.375-.234.72-.35 1.053-.307.87-.592 1.688-.592 2.713 0 1.129.37 1.758.766 2.418a1.337 1.337 0 00-1.02.038.83.83 0 00-.431.58 1.08 1.08 0 00-.025.188.83.83 0 00-.547-.485 1.213 1.213 0 00-.372-.047l-.004-.003zm3.281-8.776a.4.4 0 01.4-.398h.005a.399.399 0 01.39.409.4.4 0 01-.384.378.401.401 0 01-.407-.389h-.004zm1.628.39a.402.402 0 01-.406-.39.4.4 0 01.4-.398h.005a.399.399 0 01.39.409.4.4 0 01-.384.378h-.005zm-2.214.522c.088-.068.165-.136.243-.209-.046.313-.103.604-.166.878-.51.681-1.213 1.192-1.935 1.639-1.435.89-2.042 2.711-1.781 3.888.137.599.338 1.182.6 1.74a1.296 1.296 0 00-.2.093c-.07-.794-.689-1.511-1.4-2.334l-.33-.38-.122.445c-.228.817-.432 1.553-.398 2.188a4.924 4.924 0 01-.39-1.352c-.187-1.361.018-3.2 2.058-4.23.288-.144.563-.28.824-.408 1.294-.635 2.312-1.135 2.995-1.962l.002.004zm-4.809 6.012c.742.857 1.296 1.532 1.226 2.288-.225.24-.411.513-.55.809a2.92 2.92 0 00-.804-.457c-.403-.648-.187-1.515.126-2.639h.002zm-.432 3.618h-.03a.42.42 0 00-.407.275 1.528 1.528 0 00-.06.29 8.002 8.002 0 01-.213-.214l-.118-.126a.492.492 0 01-.01-.674c.438-.48 1.08-.374 1.898.317a.179.179 0 00.268-.06c.295-.66.795-1.405 1.494-1.208a.508.508 0 01.342.637l-.053.166c-.018.057-.06.17-.103.286a1.871 1.871 0 00-.17-.211.415.415 0 00-.491-.063c-.303.156-.576.68-.565 1.647l-.107.04c-.16.06-.319.119-.479.177-.39-.895-.856-1.258-1.196-1.277v-.002zm2.515-.297a.07.07 0 01.088.007c.112.136.217.278.313.426a.173.173 0 00.302-.034c.007-.018.175-.463.222-.605l.053-.17c.018-.06.03-.12.035-.182.029.08.07.154.124.22l.442.537c.06.075.17.089.246.031a.17.17 0 00.067-.116c.026-.188.096-.4.146-.437a.27.27 0 01.272.01c.206.101.424.375.586.855-1.127.057-2.237.29-3.286.692.013-.74.206-1.14.382-1.23l.008-.004zm2.47-.614a.623.623 0 00-.631.013.624.624 0 00-.211.315l-.216-.26a.6.6 0 01-.087-.501.491.491 0 01.242-.348c.545-.26 1.263.076 2.023.95a.187.187 0 00.27 0c.758-.87 1.474-1.21 2.015-.953.131.074.22.201.243.346.046.175.01.36-.097.506l-.218.255a.617.617 0 00-.186-.307.59.59 0 00-.613-.036c-.41.19-.658.658-.81 1.163a15.475 15.475 0 00-.453-.007c-.156 0-.323 0-.477.008-.238-.773-.601-1.05-.789-1.146l-.005.002zm2.687.292a.248.248 0 01.246 0c.045.04.104.25.125.44a.174.174 0 00.19.155.177.177 0 00.122-.064l.454-.535a.782.782 0 00.135-.233.77.77 0 00.034.19l.053.17c.045.142.215.587.222.605a.177.177 0 00.302.033c.096-.147.2-.29.313-.425.019-.017.042-.032.092-.007.176.09.366.484.382 1.21a10.728 10.728 0 00-3.272-.672c.168-.495.396-.773.6-.867h.002zm2.455.031a.414.414 0 00-.49.063 1.757 1.757 0 00-.175.211c-.042-.114-.088-.229-.102-.286l-.053-.166a.5.5 0 01.342-.637c.701-.197 1.198.549 1.49 1.21a.168.168 0 00.118.095.18.18 0 00.15-.036c.818-.692 1.457-.798 1.898-.318a.493.493 0 01-.01.674l-.118.126c-.033.037-.12.122-.214.215a1.521 1.521 0 00-.059-.29.425.425 0 00-.438-.274c-.337.02-.798.378-1.186 1.258l-.468-.17-.127-.048c.007-.956-.263-1.47-.565-1.626h.007zm2.043-.393c-.291.11-.563.264-.804.457a3.158 3.158 0 00-.55-.808c-.068-.758.485-1.431 1.227-2.288.312 1.124.525 1.991.126 2.638l.001.001zm-1.936-6.691c.262.129.537.264.824.409 2.04 1.03 2.246 2.868 2.058 4.23a4.908 4.908 0 01-.393 1.37c.04-.639-.166-1.382-.398-2.207l-.124-.448-.328.38c-.714.823-1.334 1.54-1.402 2.333a1.166 1.166 0 00-.19-.09 8.692 8.692 0 00.6-1.742c.262-1.177-.347-2.998-1.783-3.889-.72-.447-1.425-.955-1.934-1.638a10.88 10.88 0 01-.166-.878c.078.071.159.141.243.208.684.827 1.7 1.327 2.995 1.962h-.002zm-4.73-7.446l-.053-.091-.027-.045-.014-.032a.684.684 0 01-.031-.332c.036-.263.106-.52.21-.766.102-.257.218-.508.346-.754.087-.17.182-.34.28-.506.096.156.19.314.279.474.13.235.252.473.358.716.108.236.19.483.242.736a.956.956 0 01.01.34.404.404 0 01-.022.069l-.013.03-.025.044-.064.12c-.304.176-.561.42-.75.71a2.79 2.79 0 00-.7-.673l-.026-.04zm-.882.99c-.18.13-.324.3-.422.493l-.37-.651a.526.526 0 01-.037-.45.503.503 0 01.305-.3.81.81 0 01.284-.05c.67.005 1.244.369 1.704 1.079a.176.176 0 00.146.077h.013a.17.17 0 00.154-.094 1.874 1.874 0 011.695-1.062h.006c.088.001.175.015.258.042a.512.512 0 01.322.299c.06.15.048.318-.033.458l-.382.663a2.516 2.516 0 00-.397-.494c-.216-.179-.42-.24-.606-.182-.187.058-.338.237-.438.539a4.244 4.244 0 00-.062.21l-.984.008c-.021-.072-.053-.18-.067-.216-.104-.261-.25-.425-.438-.493-.187-.069-.409-.028-.645.121l-.006.004zm.48 1.385a.487.487 0 01.461-.46l1.373-.011h.006c.239-.001.433.187.434.419a.415.415 0 01-.147.317l-1.956.029a.358.358 0 01-.17-.294zm-1.098 1.063c0-.231.19-.42.429-.425l3.59-.053h.01c.24.03.41.243.379.476a.432.432 0 01-.373.367l-2.978.046h-.057a.566.566 0 00-.065.004l-.493.007a.432.432 0 01-.438-.417l-.004-.005zm-9.348 8.531c-.02-.12-.023-.241-.035-.361a2.022 2.022 0 010-.364 4.547 4.547 0 01.258-1.42c.082-.228.181-.45.298-.663a5.412 5.412 0 012.07-2.054 7.289 7.289 0 011.369-.615c.48-.16.971-.28 1.471-.363.251-.046.504-.086.758-.126.254-.04.507-.072.762-.106.509-.065 1.02-.116 1.537-.183.13-.017.263-.035.39-.059.066-.012.13-.022.195-.035l.196-.045.098-.023.098-.03.194-.062a2.48 2.48 0 00.19-.085l.095-.041c.03-.016.06-.034.087-.05l.06-.035c.06.023.122.038.187.045-1.104.824-2.741 1.239-4.984 1.73-1.323.29-2.345.973-2.955 1.972-.546.895-.739 2.025-.543 3.182.13.87.51 1.686 1.096 2.356-.242.112-.44.296-.567.525-.492-.536-1.407-1.156-1.814-1.42l-.13-.272a5.578 5.578 0 01-.237-.689 4.19 4.19 0 01-.144-.713v.004zm.894 2.343c.46.326 1.007.751 1.279 1.096-.045.149-.078.301-.097.456-.335-.398-.662-.8-.963-1.217a9.185 9.185 0 01-.222-.335h.003zm1.503 1.928c.03-.814.263-1.277.73-1.437a.434.434 0 01.21-.013.612.612 0 01.514.584l.02.469a1.205 1.205 0 00-.233-.163c-.285-.153-.47-.054-.555.02-.238.206-.263.712-.152 1.172a39.037 39.037 0 00-.534-.632zm13.47 1.403c-1.051-.378-2.14-.766-4.292-.766-2.151 0-3.241.392-4.292.766-.876.316-1.715.616-3.26.67a13.87 13.87 0 00-.658-.905c1.738-.091 2.776-.478 3.785-.851 1.172-.437 2.277-.851 4.443-.851 2.166 0 3.262.406 4.424.835 1.005.371 2.04.754 3.793.84a12.88 12.88 0 00-.679.936c-1.55-.053-2.387-.353-3.268-.67l.004-.004zm4.35-.756c.115-.464.092-.977-.148-1.186-.088-.073-.27-.17-.555-.02-.084.046-.162.1-.233.163l.02-.469a.61.61 0 01.513-.583.432.432 0 01.21.013c.467.161.7.627.731 1.447-.175.21-.36.425-.538.636V28zm.857-1.013a2.633 2.633 0 00-.096-.464c.274-.348.828-.777 1.292-1.106-.075.117-.15.233-.23.348-.3.42-.629.822-.964 1.221l-.002.001zm-8.047 3.723a7.02 7.02 0 011.047.304l.336.137c.422.185.864.336 1.316.449.46.103.926.176 1.396.218-.477.044-.958.04-1.435-.016a7.209 7.209 0 01-.358-.058 6.282 6.282 0 01-.816-.214l-.226-.073-.335-.108c-.111-.035-.222-.065-.332-.1-.11-.035-.222-.056-.334-.085-.11-.029-.225-.044-.337-.065a9.392 9.392 0 00-2.756 0c-.112.02-.224.038-.336.065-.112.027-.223.052-.334.085-.221.06-.441.136-.667.208-.226.072-.452.152-.688.208-.112.033-.233.054-.35.08-.117.027-.238.041-.357.058a7.03 7.03 0 01-1.435.016c.47-.043.936-.115 1.395-.217a8.516 8.516 0 001.318-.451 6.955 6.955 0 011.382-.441 8.15 8.15 0 012.906 0zm.042-14.347l.059.034.087.051.095.041c.064.027.127.056.19.085l.195.062.098.03.098.023.196.045c.065.014.13.023.195.035.13.024.263.042.39.059.518.067 1.028.118 1.538.183.254.034.509.066.762.106.253.04.506.081.758.126.5.082.992.204 1.471.364.478.158.936.364 1.37.615a5.414 5.414 0 012.071 2.052c.116.213.216.435.297.663.08.229.142.463.186.7.084.478.095.966.033 1.447-.028.24-.076.478-.145.712a5.607 5.607 0 01-.237.688c-.04.085-.082.175-.125.262-.4.256-1.328.886-1.826 1.427a1.236 1.236 0 00-.561-.523 4.608 4.608 0 001.098-2.358c.196-1.157 0-2.287-.543-3.182-.613-1-1.632-1.681-2.955-1.971-2.243-.492-3.88-.907-4.983-1.731a.77.77 0 00.188-.045zm6.318-4.618c.371-.015.726.15.949.439.228.292.342.73.342 1.314 0 .62-.11 1.1-.328 1.44-.22.341-.553.511-1.002.511a1.309 1.309 0 01-.596-.127 1.09 1.09 0 01-.414-.37 1.716 1.716 0 01-.24-.594 3.61 3.61 0 01-.078-.781c-.002-.587.116-1.039.354-1.356.237-.317.575-.476 1.013-.476zm-3.243 0c.186-.004.371.02.55.068a.996.996 0 01.362.184c.09.072.158.165.2.27a.87.87 0 01.062.328.685.685 0 01-.203.519c-.123.11-.263.198-.415.262l-.155.057v.049c.133.017.264.047.392.089a.848.848 0 01.287.157c.08.069.14.157.175.255.043.127.063.26.058.395a.87.87 0 01-.12.454 1.13 1.13 0 01-.317.34 1.373 1.373 0 01-.447.208 1.96 1.96 0 01-.513.068c-.242.01-.484-.03-.71-.116a.998.998 0 01-.391-.29c.063-.079.122-.157.18-.234l.084-.117.08-.118.072.016c.011.081.033.161.064.237a.78.78 0 00.123.203.558.558 0 00.175.141.525.525 0 00.237.051c.086.001.17-.019.247-.057.052-.026.1-.06.141-.099l.06-.063a.88.88 0 00.128-.25c.033-.102.048-.209.047-.316a.925.925 0 00-.167-.576.555.555 0 00-.468-.22l-.065.004-.063.003-.122.01v-.276l.075.011a.417.417 0 00.07.006c.223 0 .383-.066.481-.197a.924.924 0 00.147-.56c0-.238-.047-.41-.138-.517a.447.447 0 00-.555-.105.486.486 0 00-.152.143.758.758 0 00-.098.208l-.032.127-.02.128-.079.017a2.034 2.034 0 00-.175-.184 7.783 7.783 0 01-.194-.184c.093-.161.23-.295.395-.388.163-.094.4-.14.707-.14zm-9.953.002c.178-.003.355.02.526.068.135.038.261.099.373.18a.727.727 0 01.292.584.886.886 0 01-.05.31.745.745 0 01-.34.4.864.864 0 01-.16.069l-.084.022v.039a.873.873 0 01.507.266.896.896 0 01.248.638c.003.17-.03.34-.1.496-.063.137-.158.259-.276.356-.123.099-.266.17-.42.209-.343.084-.7.086-1.044.005a1.11 1.11 0 01-.315-.129l-.094-.064a.957.957 0 01-.265-.332 1.041 1.041 0 01-.098-.466c-.002-.13.02-.26.065-.384a.891.891 0 01.41-.49.994.994 0 01.187-.083l.1-.027v-.038a.726.726 0 01-.245-.085.782.782 0 01-.307-1.038.819.819 0 01.248-.279c.112-.079.238-.136.372-.17.154-.04.312-.059.47-.057zm-2.622-.046l.106.044c-.008.104-.015.228-.02.36l-.017.407c-.005.14-.007.278-.013.426l-.005.217-.001.208v.742c0 .19.003.387.009.588.005.202.014.435.024.698l-.108-.008-.11-.003h-.437a2.13 2.13 0 00-.22.011l.017-.248c.007-.11.014-.23.019-.36l.017-.419.006-.223.002-.226V12.39a.911.911 0 00-.07.031l-.217.108-.186.092c-.066.03-.123.057-.176.078l-.065-.082-.077-.088a.652.652 0 00-.126-.13 14.032 14.032 0 001.648-.698zm2.618 1.838a.397.397 0 00-.342.194c-.087.13-.13.349-.13.655 0 .285.044.499.133.642.067.129.202.21.35.212.127 0 .239-.069.337-.207.098-.139.148-.359.148-.657 0-.292-.047-.505-.14-.639a.419.419 0 00-.356-.2zm13.375-1.503a.365.365 0 00-.425 0 .521.521 0 00-.154.248 2.16 2.16 0 00-.087.48 8.997 8.997 0 00-.027.766c0 .296.005.552.014.766.005.177.026.354.064.528.021.111.07.215.145.303a.333.333 0 00.25.097.357.357 0 00.214-.065.47.47 0 00.15-.246 2.55 2.55 0 00.088-.5c.02-.221.03-.497.03-.828 0-.332-.008-.602-.027-.812a2.321 2.321 0 00-.088-.491.495.495 0 00-.147-.246zm-13.35-.07a.373.373 0 00-.302.12l-.049.069c-.08.166-.115.348-.106.53a.726.726 0 00.133.473.37.37 0 00.621-.022.882.882 0 00.126-.506.983.983 0 00-.104-.48.342.342 0 00-.32-.184z" fill="#FFF"/></g></svg>